<?xml version="1.0" encoding="UTF-8"?>
<svg xmlns="http://www.w3.org/2000/svg" viewBox="0 0 120 120" role="img" aria-label="MOLMOL">
  <rect width="120" height="120" rx="22" ry="22" fill="#111111"/>
  <!-- 4 white arches -->
  <g fill="none" stroke="#FFFFFF" stroke-width="6.5" stroke-linecap="round">
    <path d="M12 46c0-14 12-14 12 0"/>
    <path d="M36 46c0-14 12-14 12 0"/>
    <path d="M72 46c0-14 12-14 12 0"/>
    <path d="M96 46c0-14 12-14 12 0"/>
  </g>
  <!-- geometric 몰몰: ㅁ + ㅗ + ㄹ stylized -->
  <g fill="none" stroke="#FFFFFF" stroke-width="5" stroke-linejoin="round" stroke-linecap="round">
    <!-- left 몰 -->
    <rect x="14" y="58" width="26" height="18"/>
    <path d="M27 76v8"/>
    <path d="M18 84h18"/>
    <path d="M44 58v34"/>
    <path d="M44 75h-8"/>
    <path d="M44 92h-8"/>
    <!-- right 몰 -->
    <rect x="66" y="58" width="26" height="18"/>
    <path d="M79 76v8"/>
    <path d="M70 84h18"/>
    <path d="M96 58v34"/>
    <path d="M96 75h-8"/>
    <path d="M96 92h-8"/>
  </g>
</svg>
